<svg id="visual" viewBox="0 0 900 150" width="900" height="150" xmlns="http://www.w3.org/2000/svg" xmlns:xlink="http://www.w3.org/1999/xlink" version="1.1"><rect x="0" y="0" width="900" height="150" fill="#ffffff"></rect><path d="M0 101L15 97.2C30 93.3 60 85.7 90 84C120 82.3 150 86.7 180 87.3C210 88 240 85 270 90C300 95 330 108 360 109C390 110 420 99 450 97.3C480 95.7 510 103.3 540 102.8C570 102.3 600 93.7 630 95.5C660 97.3 690 109.7 720 109.3C750 109 780 96 810 88.8C840 81.7 870 80.3 885 79.7L900 79L900 0L885 0C870 0 840 0 810 0C780 0 750 0 720 0C690 0 660 0 630 0C600 0 570 0 540 0C510 0 480 0 450 0C420 0 390 0 360 0C330 0 300 0 270 0C240 0 210 0 180 0C150 0 120 0 90 0C60 0 30 0 15 0L0 0Z" fill="#ffffff"></path><path d="M0 62L15 66.8C30 71.7 60 81.3 90 81.5C120 81.7 150 72.3 180 73.8C210 75.3 240 87.7 270 90.3C300 93 330 86 360 81.7C390 77.3 420 75.7 450 78.5C480 81.3 510 88.7 540 89.3C570 90 600 84 630 83.7C660 83.3 690 88.7 720 88.2C750 87.7 780 81.3 810 81C840 80.7 870 86.3 885 89.2L900 92L900 0L885 0C870 0 840 0 810 0C780 0 750 0 720 0C690 0 660 0 630 0C600 0 570 0 540 0C510 0 480 0 450 0C420 0 390 0 360 0C330 0 300 0 270 0C240 0 210 0 180 0C150 0 120 0 90 0C60 0 30 0 15 0L0 0Z" fill="#d7d6ff"></path><path d="M0 50L15 54.8C30 59.7 60 69.3 90 70.2C120 71 150 63 180 59.3C210 55.7 240 56.3 270 56.7C300 57 330 57 360 56.7C390 56.3 420 55.7 450 54.2C480 52.7 510 50.3 540 49.2C570 48 600 48 630 51.7C660 55.3 690 62.7 720 67.7C750 72.7 780 75.3 810 72.5C840 69.7 870 61.3 885 57.2L900 53L900 0L885 0C870 0 840 0 810 0C780 0 750 0 720 0C690 0 660 0 630 0C600 0 570 0 540 0C510 0 480 0 450 0C420 0 390 0 360 0C330 0 300 0 270 0C240 0 210 0 180 0C150 0 120 0 90 0C60 0 30 0 15 0L0 0Z" fill="#acafff"></path><path d="M0 31L15 30.7C30 30.3 60 29.7 90 31C120 32.3 150 35.7 180 36.3C210 37 240 35 270 35.8C300 36.7 330 40.3 360 44C390 47.7 420 51.3 450 52C480 52.7 510 50.3 540 45.7C570 41 600 34 630 30.8C660 27.7 690 28.3 720 32.7C750 37 780 45 810 45.3C840 45.7 870 38.3 885 34.7L900 31L900 0L885 0C870 0 840 0 810 0C780 0 750 0 720 0C690 0 660 0 630 0C600 0 570 0 540 0C510 0 480 0 450 0C420 0 390 0 360 0C330 0 300 0 270 0C240 0 210 0 180 0C150 0 120 0 90 0C60 0 30 0 15 0L0 0Z" fill="#7789ff"></path><path d="M0 12L15 14.5C30 17 60 22 90 22.3C120 22.7 150 18.3 180 17.3C210 16.3 240 18.7 270 20.5C300 22.3 330 23.7 360 25.5C390 27.3 420 29.7 450 29.2C480 28.7 510 25.3 540 24C570 22.7 600 23.3 630 23C660 22.7 690 21.3 720 22.8C750 24.3 780 28.7 810 30.8C840 33 870 33 885 33L900 33L900 0L885 0C870 0 840 0 810 0C780 0 750 0 720 0C690 0 660 0 630 0C600 0 570 0 540 0C510 0 480 0 450 0C420 0 390 0 360 0C330 0 300 0 270 0C240 0 210 0 180 0C150 0 120 0 90 0C60 0 30 0 15 0L0 0Z" fill="#0066ff"></path></svg>