<svg id="visual" viewBox="0 0 900 150" width="900" height="150" xmlns="http://www.w3.org/2000/svg" xmlns:xlink="http://www.w3.org/1999/xlink" version="1.1"><path d="M0 40L11.5 36.8C23 33.7 46 27.3 69 29.3C92 31.3 115 41.7 138.2 47.8C161.3 54 184.7 56 207.8 56C231 56 254 54 277 49.8C300 45.7 323 39.3 346 38.3C369 37.3 392 41.7 415.2 44.3C438.3 47 461.7 48 484.8 49C508 50 531 51 554 47.8C577 44.7 600 37.3 623 33.8C646 30.3 669 30.7 692.2 34.3C715.3 38 738.7 45 761.8 45.5C785 46 808 40 831 36.3C854 32.7 877 31.3 888.5 30.7L900 30L900 0L888.5 0C877 0 854 0 831 0C808 0 785 0 761.8 0C738.7 0 715.3 0 692.2 0C669 0 646 0 623 0C600 0 577 0 554 0C531 0 508 0 484.8 0C461.7 0 438.3 0 415.2 0C392 0 369 0 346 0C323 0 300 0 277 0C254 0 231 0 207.8 0C184.7 0 161.3 0 138.2 0C115 0 92 0 69 0C46 0 23 0 11.5 0L0 0Z" fill="#0066ff"></path><path d="M0 73L11.5 68.5C23 64 46 55 69 55.8C92 56.7 115 67.3 138.2 73.7C161.3 80 184.7 82 207.8 81C231 80 254 76 277 70.7C300 65.3 323 58.7 346 57.3C369 56 392 60 415.2 65C438.3 70 461.7 76 484.8 78.8C508 81.7 531 81.3 554 77.7C577 74 600 67 623 65.5C646 64 669 68 692.2 69C715.3 70 738.7 68 761.8 64.2C785 60.3 808 54.7 831 51.2C854 47.7 877 46.3 888.5 45.7L900 45L900 28L888.5 28.7C877 29.3 854 30.7 831 34.3C808 38 785 44 761.8 43.5C738.7 43 715.3 36 692.2 32.3C669 28.7 646 28.3 623 31.8C600 35.3 577 42.7 554 45.8C531 49 508 48 484.8 47C461.7 46 438.3 45 415.2 42.3C392 39.7 369 35.3 346 36.3C323 37.3 300 43.7 277 47.8C254 52 231 54 207.8 54C184.7 54 161.3 52 138.2 45.8C115 39.7 92 29.3 69 27.3C46 25.3 23 31.7 11.5 34.8L0 38Z" fill="#7789ff"></path><path d="M0 91L11.5 87.3C23 83.7 46 76.3 69 77.7C92 79 115 89 138.2 94.8C161.3 100.7 184.7 102.3 207.8 101.8C231 101.3 254 98.7 277 93.8C300 89 323 82 346 78.5C369 75 392 75 415.2 79.5C438.3 84 461.7 93 484.8 98.2C508 103.3 531 104.7 554 101.7C577 98.7 600 91.3 623 87.2C646 83 669 82 692.2 81C715.3 80 738.7 79 761.8 75.2C785 71.3 808 64.7 831 60.7C854 56.7 877 55.3 888.5 54.7L900 54L900 43L888.5 43.7C877 44.3 854 45.7 831 49.2C808 52.7 785 58.3 761.8 62.2C738.7 66 715.3 68 692.2 67C669 66 646 62 623 63.5C600 65 577 72 554 75.7C531 79.3 508 79.7 484.8 76.8C461.7 74 438.3 68 415.2 63C392 58 369 54 346 55.3C323 56.7 300 63.3 277 68.7C254 74 231 78 207.8 79C184.7 80 161.3 78 138.2 71.7C115 65.3 92 54.7 69 53.8C46 53 23 62 11.5 66.5L0 71Z" fill="#acafff"></path><path d="M0 129L11.5 129.2C23 129.3 46 129.7 69 131.2C92 132.7 115 135.3 138.2 134.8C161.3 134.3 184.7 130.7 207.8 130.2C231 129.7 254 132.3 277 132.2C300 132 323 129 346 128.2C369 127.3 392 128.7 415.2 128.3C438.3 128 461.7 126 484.8 128C508 130 531 136 554 137.8C577 139.7 600 137.3 623 136.2C646 135 669 135 692.2 133.2C715.3 131.3 738.7 127.7 761.8 124.8C785 122 808 120 831 121C854 122 877 126 888.5 128L900 130L900 52L888.5 52.7C877 53.3 854 54.7 831 58.7C808 62.7 785 69.3 761.8 73.2C738.7 77 715.3 78 692.2 79C669 80 646 81 623 85.2C600 89.3 577 96.7 554 99.7C531 102.7 508 101.3 484.8 96.2C461.7 91 438.3 82 415.2 77.5C392 73 369 73 346 76.5C323 80 300 87 277 91.8C254 96.7 231 99.3 207.8 99.8C184.7 100.3 161.3 98.7 138.2 92.8C115 87 92 77 69 75.7C46 74.3 23 81.7 11.5 85.3L0 89Z" fill="#d7d6ff"></path><path d="M0 151L11.5 151C23 151 46 151 69 151C92 151 115 151 138.2 151C161.3 151 184.7 151 207.8 151C231 151 254 151 277 151C300 151 323 151 346 151C369 151 392 151 415.2 151C438.3 151 461.7 151 484.8 151C508 151 531 151 554 151C577 151 600 151 623 151C646 151 669 151 692.2 151C715.3 151 738.7 151 761.8 151C785 151 808 151 831 151C854 151 877 151 888.5 151L900 151L900 128L888.5 126C877 124 854 120 831 119C808 118 785 120 761.8 122.8C738.7 125.7 715.3 129.3 692.2 131.2C669 133 646 133 623 134.2C600 135.3 577 137.7 554 135.8C531 134 508 128 484.8 126C461.7 124 438.3 126 415.2 126.3C392 126.7 369 125.3 346 126.2C323 127 300 130 277 130.2C254 130.3 231 127.7 207.8 128.2C184.7 128.7 161.3 132.3 138.2 132.8C115 133.3 92 130.7 69 129.2C46 127.7 23 127.3 11.5 127.2L0 127Z" fill="#ffffff"></path></svg>