<svg id="visual" viewBox="0 0 960 540" width="960" height="540" xmlns="http://www.w3.org/2000/svg" xmlns:xlink="http://www.w3.org/1999/xlink" version="1.1"><rect x="0" y="0" width="960" height="540" fill="#0066FF"></rect><path d="M0 318L22.8 323.3C45.7 328.7 91.3 339.3 137 352.2C182.7 365 228.3 380 274 381.2C319.7 382.3 365.3 369.7 411.2 362.5C457 355.3 503 353.7 548.8 354.5C594.7 355.3 640.3 358.7 686 359.7C731.7 360.7 777.3 359.3 823 359C868.7 358.7 914.3 359.3 937.2 359.7L960 360L960 541L937.2 541C914.3 541 868.7 541 823 541C777.3 541 731.7 541 686 541C640.3 541 594.7 541 548.8 541C503 541 457 541 411.2 541C365.3 541 319.7 541 274 541C228.3 541 182.7 541 137 541C91.3 541 45.7 541 22.8 541L0 541Z" fill="#0066ff"></path><path d="M0 360L22.8 365.8C45.7 371.7 91.3 383.3 137 393.2C182.7 403 228.3 411 274 407C319.7 403 365.3 387 411.2 385.2C457 383.3 503 395.7 548.8 401.8C594.7 408 640.3 408 686 399.5C731.7 391 777.3 374 823 368.2C868.7 362.3 914.3 367.7 937.2 370.3L960 373L960 541L937.2 541C914.3 541 868.7 541 823 541C777.3 541 731.7 541 686 541C640.3 541 594.7 541 548.8 541C503 541 457 541 411.2 541C365.3 541 319.7 541 274 541C228.3 541 182.7 541 137 541C91.3 541 45.7 541 22.8 541L0 541Z" fill="#7789ff"></path><path d="M0 397L22.8 404.2C45.7 411.3 91.3 425.7 137 430.8C182.7 436 228.3 432 274 424.3C319.7 416.7 365.3 405.3 411.2 410.2C457 415 503 436 548.8 445.8C594.7 455.7 640.3 454.3 686 445C731.7 435.7 777.3 418.3 823 408.5C868.7 398.7 914.3 396.3 937.2 395.2L960 394L960 541L937.2 541C914.3 541 868.7 541 823 541C777.3 541 731.7 541 686 541C640.3 541 594.7 541 548.8 541C503 541 457 541 411.2 541C365.3 541 319.7 541 274 541C228.3 541 182.7 541 137 541C91.3 541 45.7 541 22.8 541L0 541Z" fill="#acafff"></path><path d="M0 486L22.8 482C45.7 478 91.3 470 137 469.7C182.7 469.3 228.3 476.7 274 475.5C319.7 474.3 365.3 464.7 411.2 464.5C457 464.3 503 473.7 548.8 475.3C594.7 477 640.3 471 686 465C731.7 459 777.3 453 823 456.8C868.7 460.7 914.3 474.3 937.2 481.2L960 488L960 541L937.2 541C914.3 541 868.7 541 823 541C777.3 541 731.7 541 686 541C640.3 541 594.7 541 548.8 541C503 541 457 541 411.2 541C365.3 541 319.7 541 274 541C228.3 541 182.7 541 137 541C91.3 541 45.7 541 22.8 541L0 541Z" fill="#d7d6ff"></path><path d="M0 488L22.8 487.5C45.7 487 91.3 486 137 490.5C182.7 495 228.3 505 274 505.8C319.7 506.7 365.3 498.3 411.2 495.5C457 492.7 503 495.3 548.8 499.2C594.7 503 640.3 508 686 507.7C731.7 507.3 777.3 501.7 823 499.5C868.7 497.3 914.3 498.7 937.2 499.3L960 500L960 541L937.2 541C914.3 541 868.7 541 823 541C777.3 541 731.7 541 686 541C640.3 541 594.7 541 548.8 541C503 541 457 541 411.2 541C365.3 541 319.7 541 274 541C228.3 541 182.7 541 137 541C91.3 541 45.7 541 22.8 541L0 541Z" fill="#ffffff"></path></svg>