<svg id="visual" viewBox="0 0 900 50" width="900" height="50" xmlns="http://www.w3.org/2000/svg" xmlns:xlink="http://www.w3.org/1999/xlink" version="1.1"><path d="M0 7L7.8 6.7C15.7 6.3 31.3 5.7 47.2 5.8C63 6 79 7 94.8 6.7C110.7 6.3 126.3 4.7 142 4.2C157.7 3.7 173.3 4.3 189.2 5.2C205 6 221 7 236.8 6.8C252.7 6.7 268.3 5.3 284.2 4.7C300 4 316 4 331.8 4C347.7 4 363.3 4 379 4.2C394.7 4.3 410.3 4.7 426.2 5.8C442 7 458 9 473.8 8.8C489.7 8.7 505.3 6.3 521 5.3C536.7 4.3 552.3 4.7 568.2 5.2C584 5.7 600 6.3 615.8 6.5C631.7 6.7 647.3 6.3 663.2 5.8C679 5.3 695 4.7 710.8 4.8C726.7 5 742.3 6 758 7C773.7 8 789.3 9 805.2 9.7C821 10.3 837 10.7 852.8 10.8C868.7 11 884.3 11 892.2 11L900 11L900 0L892.2 0C884.3 0 868.7 0 852.8 0C837 0 821 0 805.2 0C789.3 0 773.7 0 758 0C742.3 0 726.7 0 710.8 0C695 0 679 0 663.2 0C647.3 0 631.7 0 615.8 0C600 0 584 0 568.2 0C552.3 0 536.7 0 521 0C505.3 0 489.7 0 473.8 0C458 0 442 0 426.2 0C410.3 0 394.7 0 379 0C363.3 0 347.7 0 331.8 0C316 0 300 0 284.2 0C268.3 0 252.7 0 236.8 0C221 0 205 0 189.2 0C173.3 0 157.7 0 142 0C126.3 0 110.7 0 94.8 0C79 0 63 0 47.2 0C31.3 0 15.7 0 7.8 0L0 0Z" fill="#ffffff"></path><path d="M0 32L7.8 30.3C15.7 28.7 31.3 25.3 47.2 25.5C63 25.7 79 29.3 94.8 28.7C110.7 28 126.3 23 142 19.2C157.7 15.3 173.3 12.7 189.2 13.3C205 14 221 18 236.8 19.3C252.7 20.7 268.3 19.3 284.2 18.8C300 18.3 316 18.7 331.8 19.3C347.7 20 363.3 21 379 21.3C394.7 21.7 410.3 21.3 426.2 20.8C442 20.3 458 19.7 473.8 17.5C489.7 15.3 505.3 11.7 521 10C536.7 8.3 552.3 8.7 568.2 11C584 13.3 600 17.7 615.8 20.8C631.7 24 647.3 26 663.2 24.7C679 23.3 695 18.7 710.8 16.8C726.7 15 742.3 16 758 16.2C773.7 16.3 789.3 15.7 805.2 15.8C821 16 837 17 852.8 20C868.7 23 884.3 28 892.2 30.5L900 33L900 9L892.2 9C884.3 9 868.7 9 852.8 8.8C837 8.7 821 8.3 805.2 7.7C789.3 7 773.7 6 758 5C742.3 4 726.7 3 710.8 2.8C695 2.7 679 3.3 663.2 3.8C647.3 4.3 631.7 4.7 615.8 4.5C600 4.3 584 3.7 568.2 3.2C552.3 2.7 536.7 2.3 521 3.3C505.3 4.3 489.7 6.7 473.8 6.8C458 7 442 5 426.2 3.8C410.3 2.7 394.7 2.3 379 2.2C363.3 2 347.7 2 331.8 2C316 2 300 2 284.2 2.7C268.3 3.3 252.7 4.7 236.8 4.8C221 5 205 4 189.2 3.2C173.3 2.3 157.7 1.7 142 2.2C126.3 2.7 110.7 4.3 94.8 4.7C79 5 63 4 47.2 3.8C31.3 3.7 15.7 4.3 7.8 4.7L0 5Z" fill="#d7d6ff"></path><path d="M0 37L7.8 35.7C15.7 34.3 31.3 31.7 47.2 31.7C63 31.7 79 34.3 94.8 34C110.7 33.7 126.3 30.3 142 27.2C157.7 24 173.3 21 189.2 22C205 23 221 28 236.8 29.8C252.7 31.7 268.3 30.3 284.2 29.3C300 28.3 316 27.7 331.8 28C347.7 28.3 363.3 29.7 379 29.2C394.7 28.7 410.3 26.3 426.2 25.2C442 24 458 24 473.8 22.8C489.7 21.7 505.3 19.3 521 19.7C536.7 20 552.3 23 568.2 26.5C584 30 600 34 615.8 35.5C631.7 37 647.3 36 663.2 34.8C679 33.7 695 32.3 710.8 30.8C726.7 29.3 742.3 27.7 758 26.7C773.7 25.7 789.3 25.3 805.2 25.8C821 26.3 837 27.7 852.8 29.7C868.7 31.7 884.3 34.3 892.2 35.7L900 37L900 31L892.2 28.5C884.3 26 868.7 21 852.8 18C837 15 821 14 805.2 13.8C789.3 13.7 773.7 14.3 758 14.2C742.3 14 726.7 13 710.8 14.8C695 16.7 679 21.3 663.2 22.7C647.3 24 631.7 22 615.8 18.8C600 15.7 584 11.3 568.2 9C552.3 6.7 536.7 6.3 521 8C505.3 9.7 489.7 13.3 473.8 15.5C458 17.7 442 18.3 426.2 18.8C410.3 19.3 394.7 19.7 379 19.3C363.3 19 347.7 18 331.8 17.3C316 16.7 300 16.3 284.2 16.8C268.3 17.3 252.7 18.7 236.8 17.3C221 16 205 12 189.2 11.3C173.3 10.7 157.7 13.3 142 17.2C126.3 21 110.7 26 94.8 26.7C79 27.3 63 23.7 47.2 23.5C31.3 23.3 15.7 26.7 7.8 28.3L0 30Z" fill="#acafff"></path><path d="M0 49L7.8 47.8C15.7 46.7 31.3 44.3 47.2 44.2C63 44 79 46 94.8 45.7C110.7 45.3 126.3 42.7 142 42.3C157.7 42 173.3 44 189.2 44.2C205 44.3 221 42.7 236.8 41.7C252.7 40.7 268.3 40.3 284.2 40.2C300 40 316 40 331.8 41.3C347.7 42.7 363.3 45.3 379 45.7C394.7 46 410.3 44 426.2 42.8C442 41.7 458 41.3 473.8 41.2C489.7 41 505.3 41 521 41.8C536.7 42.7 552.3 44.3 568.2 45.2C584 46 600 46 615.8 45.8C631.7 45.7 647.3 45.3 663.2 45.3C679 45.3 695 45.7 710.8 45.2C726.7 44.7 742.3 43.3 758 43.2C773.7 43 789.3 44 805.2 44.7C821 45.3 837 45.7 852.8 45.3C868.7 45 884.3 44 892.2 43.5L900 43L900 35L892.2 33.7C884.3 32.3 868.7 29.7 852.8 27.7C837 25.7 821 24.3 805.2 23.8C789.3 23.3 773.7 23.7 758 24.7C742.3 25.7 726.7 27.3 710.8 28.8C695 30.3 679 31.7 663.2 32.8C647.3 34 631.7 35 615.8 33.5C600 32 584 28 568.2 24.5C552.3 21 536.7 18 521 17.7C505.3 17.3 489.7 19.7 473.8 20.8C458 22 442 22 426.2 23.2C410.3 24.3 394.7 26.7 379 27.2C363.3 27.7 347.7 26.3 331.8 26C316 25.7 300 26.3 284.2 27.3C268.3 28.3 252.7 29.7 236.8 27.8C221 26 205 21 189.2 20C173.3 19 157.7 22 142 25.2C126.3 28.3 110.7 31.7 94.8 32C79 32.3 63 29.7 47.2 29.7C31.3 29.7 15.7 32.3 7.8 33.7L0 35Z" fill="#7789ff"></path><path d="M0 51L7.8 51C15.7 51 31.3 51 47.2 51C63 51 79 51 94.8 51C110.7 51 126.3 51 142 51C157.7 51 173.3 51 189.2 51C205 51 221 51 236.8 51C252.7 51 268.3 51 284.2 51C300 51 316 51 331.8 51C347.7 51 363.3 51 379 51C394.7 51 410.3 51 426.2 51C442 51 458 51 473.8 51C489.7 51 505.3 51 521 51C536.7 51 552.3 51 568.2 51C584 51 600 51 615.8 51C631.7 51 647.3 51 663.2 51C679 51 695 51 710.8 51C726.7 51 742.3 51 758 51C773.7 51 789.3 51 805.2 51C821 51 837 51 852.8 51C868.7 51 884.3 51 892.2 51L900 51L900 41L892.2 41.5C884.3 42 868.7 43 852.8 43.3C837 43.7 821 43.3 805.2 42.7C789.3 42 773.7 41 758 41.2C742.3 41.3 726.7 42.7 710.8 43.2C695 43.7 679 43.3 663.2 43.3C647.3 43.3 631.7 43.7 615.8 43.8C600 44 584 44 568.2 43.2C552.3 42.3 536.7 40.7 521 39.8C505.3 39 489.7 39 473.8 39.2C458 39.3 442 39.7 426.2 40.8C410.3 42 394.7 44 379 43.7C363.3 43.3 347.7 40.7 331.8 39.3C316 38 300 38 284.2 38.2C268.3 38.3 252.7 38.7 236.8 39.7C221 40.7 205 42.3 189.2 42.2C173.3 42 157.7 40 142 40.3C126.3 40.7 110.7 43.3 94.8 43.7C79 44 63 42 47.2 42.2C31.3 42.3 15.7 44.7 7.8 45.8L0 47Z" fill="#0066ff"></path></svg>