<svg id="visual" viewBox="0 0 960 540" width="960" height="540" xmlns="http://www.w3.org/2000/svg" xmlns:xlink="http://www.w3.org/1999/xlink" version="1.1"><rect x="0" y="0" width="960" height="540" fill="#0066FF"></rect><path d="M0 139L22.8 144.7C45.7 150.3 91.3 161.7 137 162.7C182.7 163.7 228.3 154.3 274 149.2C319.7 144 365.3 143 411.2 145.5C457 148 503 154 548.8 164.2C594.7 174.3 640.3 188.7 686 195.2C731.7 201.7 777.3 200.3 823 197C868.7 193.7 914.3 188.3 937.2 185.7L960 183L960 0L937.2 0C914.3 0 868.7 0 823 0C777.3 0 731.7 0 686 0C640.3 0 594.7 0 548.8 0C503 0 457 0 411.2 0C365.3 0 319.7 0 274 0C228.3 0 182.7 0 137 0C91.3 0 45.7 0 22.8 0L0 0Z" fill="#0066ff"></path><path d="M0 174L22.8 174.5C45.7 175 91.3 176 137 167.8C182.7 159.7 228.3 142.3 274 143C319.7 143.7 365.3 162.3 411.2 168.8C457 175.3 503 169.7 548.8 164.3C594.7 159 640.3 154 686 145.5C731.7 137 777.3 125 823 129.2C868.7 133.3 914.3 153.7 937.2 163.8L960 174L960 0L937.2 0C914.3 0 868.7 0 823 0C777.3 0 731.7 0 686 0C640.3 0 594.7 0 548.8 0C503 0 457 0 411.2 0C365.3 0 319.7 0 274 0C228.3 0 182.7 0 137 0C91.3 0 45.7 0 22.8 0L0 0Z" fill="#7789ff"></path><path d="M0 82L22.8 84.2C45.7 86.3 91.3 90.7 137 96C182.7 101.3 228.3 107.7 274 115.3C319.7 123 365.3 132 411.2 134.5C457 137 503 133 548.8 125.7C594.7 118.3 640.3 107.7 686 104.7C731.7 101.7 777.3 106.3 823 114.2C868.7 122 914.3 133 937.2 138.5L960 144L960 0L937.2 0C914.3 0 868.7 0 823 0C777.3 0 731.7 0 686 0C640.3 0 594.7 0 548.8 0C503 0 457 0 411.2 0C365.3 0 319.7 0 274 0C228.3 0 182.7 0 137 0C91.3 0 45.7 0 22.8 0L0 0Z" fill="#acafff"></path><path d="M0 63L22.8 66.3C45.7 69.7 91.3 76.3 137 76.5C182.7 76.7 228.3 70.3 274 73.7C319.7 77 365.3 90 411.2 94.7C457 99.3 503 95.7 548.8 94C594.7 92.3 640.3 92.7 686 87.2C731.7 81.7 777.3 70.3 823 68.7C868.7 67 914.3 75 937.2 79L960 83L960 0L937.2 0C914.3 0 868.7 0 823 0C777.3 0 731.7 0 686 0C640.3 0 594.7 0 548.8 0C503 0 457 0 411.2 0C365.3 0 319.7 0 274 0C228.3 0 182.7 0 137 0C91.3 0 45.7 0 22.8 0L0 0Z" fill="#d7d6ff"></path><path d="M0 65L22.8 64.7C45.7 64.3 91.3 63.7 137 58.7C182.7 53.7 228.3 44.3 274 43C319.7 41.7 365.3 48.3 411.2 47.7C457 47 503 39 548.8 38.7C594.7 38.3 640.3 45.7 686 47C731.7 48.3 777.3 43.7 823 42.5C868.7 41.3 914.3 43.7 937.2 44.8L960 46L960 0L937.2 0C914.3 0 868.7 0 823 0C777.3 0 731.7 0 686 0C640.3 0 594.7 0 548.8 0C503 0 457 0 411.2 0C365.3 0 319.7 0 274 0C228.3 0 182.7 0 137 0C91.3 0 45.7 0 22.8 0L0 0Z" fill="#ffffff"></path></svg>