<svg id="visual" viewBox="0 0 960 150" width="960" height="150" xmlns="http://www.w3.org/2000/svg" xmlns:xlink="http://www.w3.org/1999/xlink" version="1.1"><path d="M0 15L14.5 16.7C29 18.3 58 21.7 87.2 21.2C116.3 20.7 145.7 16.3 174.8 15.8C204 15.3 233 18.7 262 21.7C291 24.7 320 27.3 349 26.2C378 25 407 20 436.2 18C465.3 16 494.7 17 523.8 19C553 21 582 24 611 24.5C640 25 669 23 698 22.7C727 22.3 756 23.7 785.2 22.8C814.3 22 843.7 19 872.8 18C902 17 931 18 945.5 18.5L960 19L960 0L945.5 0C931 0 902 0 872.8 0C843.7 0 814.3 0 785.2 0C756 0 727 0 698 0C669 0 640 0 611 0C582 0 553 0 523.8 0C494.7 0 465.3 0 436.2 0C407 0 378 0 349 0C320 0 291 0 262 0C233 0 204 0 174.8 0C145.7 0 116.3 0 87.2 0C58 0 29 0 14.5 0L0 0Z" fill="#ffffff"></path><path d="M0 48L14.5 51.7C29 55.3 58 62.7 87.2 63.8C116.3 65 145.7 60 174.8 57.3C204 54.7 233 54.3 262 58.8C291 63.3 320 72.7 349 77.7C378 82.7 407 83.3 436.2 79.2C465.3 75 494.7 66 523.8 63C553 60 582 63 611 63.7C640 64.3 669 62.7 698 61.8C727 61 756 61 785.2 62.5C814.3 64 843.7 67 872.8 64C902 61 931 52 945.5 47.5L960 43L960 17L945.5 16.5C931 16 902 15 872.8 16C843.7 17 814.3 20 785.2 20.8C756 21.7 727 20.3 698 20.7C669 21 640 23 611 22.5C582 22 553 19 523.8 17C494.7 15 465.3 14 436.2 16C407 18 378 23 349 24.2C320 25.3 291 22.7 262 19.7C233 16.7 204 13.3 174.8 13.8C145.7 14.3 116.3 18.7 87.2 19.2C58 19.7 29 16.3 14.5 14.7L0 13Z" fill="#d7d6ff"></path><path d="M0 96L14.5 98C29 100 58 104 87.2 107C116.3 110 145.7 112 174.8 112C204 112 233 110 262 109.2C291 108.3 320 108.7 349 108.8C378 109 407 109 436.2 110.5C465.3 112 494.7 115 523.8 113.8C553 112.7 582 107.3 611 103.7C640 100 669 98 698 97.7C727 97.3 756 98.7 785.2 99.3C814.3 100 843.7 100 872.8 101.5C902 103 931 106 945.5 107.5L960 109L960 41L945.5 45.5C931 50 902 59 872.8 62C843.7 65 814.3 62 785.2 60.5C756 59 727 59 698 59.8C669 60.7 640 62.3 611 61.7C582 61 553 58 523.8 61C494.7 64 465.3 73 436.2 77.2C407 81.3 378 80.7 349 75.7C320 70.7 291 61.3 262 56.8C233 52.3 204 52.7 174.8 55.3C145.7 58 116.3 63 87.2 61.8C58 60.7 29 53.3 14.5 49.7L0 46Z" fill="#acafff"></path><path d="M0 130L14.5 130C29 130 58 130 87.2 130.5C116.3 131 145.7 132 174.8 133.8C204 135.7 233 138.3 262 137.2C291 136 320 131 349 129.7C378 128.3 407 130.7 436.2 133.3C465.3 136 494.7 139 523.8 139.5C553 140 582 138 611 136.3C640 134.7 669 133.3 698 134.3C727 135.3 756 138.7 785.2 140.2C814.3 141.7 843.7 141.3 872.8 139.3C902 137.3 931 133.7 945.5 131.8L960 130L960 107L945.5 105.5C931 104 902 101 872.8 99.5C843.7 98 814.3 98 785.2 97.3C756 96.7 727 95.3 698 95.7C669 96 640 98 611 101.7C582 105.3 553 110.7 523.8 111.8C494.7 113 465.3 110 436.2 108.5C407 107 378 107 349 106.8C320 106.7 291 106.3 262 107.2C233 108 204 110 174.8 110C145.7 110 116.3 108 87.2 105C58 102 29 98 14.5 96L0 94Z" fill="#7789ff"></path><path d="M0 151L14.5 151C29 151 58 151 87.2 151C116.3 151 145.7 151 174.8 151C204 151 233 151 262 151C291 151 320 151 349 151C378 151 407 151 436.2 151C465.3 151 494.7 151 523.8 151C553 151 582 151 611 151C640 151 669 151 698 151C727 151 756 151 785.2 151C814.3 151 843.7 151 872.8 151C902 151 931 151 945.5 151L960 151L960 128L945.5 129.8C931 131.7 902 135.3 872.8 137.3C843.7 139.3 814.3 139.7 785.2 138.2C756 136.7 727 133.3 698 132.3C669 131.3 640 132.7 611 134.3C582 136 553 138 523.8 137.5C494.7 137 465.3 134 436.2 131.3C407 128.7 378 126.3 349 127.7C320 129 291 134 262 135.2C233 136.3 204 133.7 174.8 131.8C145.7 130 116.3 129 87.2 128.5C58 128 29 128 14.5 128L0 128Z" fill="#0066ff"></path></svg>