<?xml version="1.0" standalone="no"?>
<!DOCTYPE svg PUBLIC "-//W3C//DTD SVG 20010904//EN"
 "http://www.w3.org/TR/2001/REC-SVG-20010904/DTD/svg10.dtd">
<svg version="1.0" xmlns="http://www.w3.org/2000/svg"
 width="1000.000000pt" height="992.000000pt" viewBox="0 0 1000.000000 992.000000"
 preserveAspectRatio="xMidYMid meet">

<g transform="translate(0.000000,992.000000) scale(0.100000,-0.100000)"
fill="#000000" stroke="none">
<path d="M396 7398 c-4 -1168 -6 -3221 -4 -4563 l3 -2440 4605 0 4605 0 3
4563 2 4562 -4604 0 -4604 0 -6 -2122z m4113 -1806 c267 -845 486 -1539 488
-1541 2 -2 5 -2 9 1 3 3 223 695 489 1538 266 842 485 1534 488 1536 2 2 170
3 374 2 l369 -3 -94 -285 c-328 -1000 -973 -2951 -1196 -3625 l-163 -490 -274
0 -274 0 -138 420 c-76 231 -194 589 -262 795 -211 641 -336 1022 -555 1690
-117 355 -272 827 -345 1050 -73 223 -136 415 -140 428 l-6 22 373 0 373 0
484 -1538z"/>
</g>
</svg>
